<svg width="220" height="220" viewBox="0 0 220 220" fill="none" xmlns="http://www.w3.org/2000/svg">
  <g stroke="#8A8377" stroke-width="4" stroke-linecap="round" stroke-linejoin="round" opacity="0.75">
    <path d="M110 36c14 0 24 10 24 23 0 7-4 13-9 17" />
    <path d="M125 76c16 3 29 16 29 33 0 4-1 8-2 11" />
    <path d="M152 120c19 5 32 22 32 42 0 25-20 44-45 44H82c-26 0-46-19-46-44 0-22 15-40 36-43" />
    <path d="M72 119c-2-4-4-8-4-13 0-17 13-30 30-33" />
    <path d="M98 73c-5-4-8-10-8-16 0-12 9-21 20-21" />
    <circle cx="86" cy="154" r="5" fill="#8A8377" stroke="none" />
    <circle cx="112" cy="163" r="4" fill="#8A8377" stroke="none" />
    <circle cx="137" cy="152" r="5" fill="#8A8377" stroke="none" />
  </g>
</svg>
