<svg width="120" height="120" viewBox="0 0 120 120" fill="none" xmlns="http://www.w3.org/2000/svg">
  <g stroke="currentColor" stroke-width="3" stroke-linecap="round" stroke-linejoin="round">
    <path d="M60 18c7 0 12 5 12 11 0 4-2 7-5 9"/>
    <path d="M67 38c9 1 16 9 16 18 0 3-1 5-2 7"/>
    <path d="M81 63c11 3 19 12 19 24 0 14-11 25-26 25H46c-15 0-26-11-26-25 0-12 8-21 19-24"/>
    <path d="M39 63c-2-2-3-5-3-8 0-9 7-16 16-18"/>
    <path d="M52 37c-3-2-4-5-4-8 0-6 5-11 11-11"/>
  </g>
</svg>
